<?xml version="1.0" standalone="no"?>
<!DOCTYPE svg PUBLIC "-//W3C//DTD SVG 20010904//EN"
 "http://www.w3.org/TR/2001/REC-SVG-20010904/DTD/svg10.dtd">
<svg version="1.0" xmlns="http://www.w3.org/2000/svg"
 width="500.000000pt" height="500.000000pt" viewBox="0 0 500.000000 500.000000"
 preserveAspectRatio="xMidYMid meet">

<g transform="translate(0.000000,500.000000) scale(0.100000,-0.100000)"
fill="#ffffff" stroke=" #000000">
<path d="M1345 3231 c-502 -137 -525 -144 -525 -171 0 -14 24 -192 54 -395 39
-274 58 -381 74 -410 24 -49 76 -103 139 -146 56 -39 331 -169 356 -169 23 0
265 111 337 155 57 35 133 108 164 159 13 20 34 142 75 430 l57 401 -25 6
c-48 12 -214 57 -396 108 -99 28 -187 53 -195 55 -8 2 -60 -8 -115 -23z m288
-91 c391 -108 377 -103 372 -125 -2 -11 -25 -171 -50 -355 -51 -371 -57 -394
-132 -459 -38 -34 -178 -111 -201 -111 -17 0 -64 122 -69 180 -7 70 1 105 24
116 10 5 72 11 137 14 l120 5 38 78 c23 46 36 86 33 97 -3 11 -44 34 -106 61
-89 39 -102 48 -115 79 -30 71 -120 138 -205 154 -31 5 -38 11 -43 39 -9 45
-37 117 -46 117 -4 0 -27 -32 -51 -72 -47 -77 -66 -99 -149 -167 -29 -24 -72
-75 -96 -112 -43 -67 -104 -212 -104 -250 0 -21 -20 -27 -20 -6 0 6 -20 146
-44 310 -38 266 -41 300 -27 305 25 10 525 150 539 151 7 1 95 -22 195 -49z
m2 -374 c28 -29 40 -66 31 -102 -25 -100 -177 -100 -202 0 -9 36 3 73 31 102
18 18 35 24 70 24 35 0 52 -6 70 -24z m108 -146 c-3 -11 0 -20 6 -20 6 0 11 7
11 15 0 8 5 15 10 15 6 0 10 -7 10 -16 0 -10 6 -13 18 -10 9 3 24 1 32 -4 13
-8 12 -10 -2 -10 -10 0 -18 -5 -18 -11 0 -6 9 -9 20 -6 19 5 21 1 19 -36 -2
-62 -10 -87 -25 -87 -8 0 -11 -6 -8 -15 4 -9 0 -15 -10 -15 -10 0 -13 6 -10
15 4 8 1 15 -5 15 -6 0 -11 -7 -11 -15 0 -8 -4 -15 -10 -15 -5 0 -10 7 -10 15
0 8 -5 15 -11 15 -6 0 -9 -7 -5 -15 3 -9 0 -15 -10 -15 -10 0 -14 6 -10 15 3
9 0 15 -10 15 -10 0 -14 -6 -10 -15 3 -8 1 -15 -4 -15 -10 0 -13 12 -12 68 0
34 6 46 23 48 5 1 12 2 15 3 4 0 1 8 -6 16 -7 9 -8 15 -2 15 5 0 10 6 9 13 -1
33 4 57 12 57 5 0 7 -9 4 -20z"/>
<path d="M1590 2686 c0 -21 21 -31 31 -15 14 22 11 29 -11 29 -11 0 -20 -6
-20 -14z"/>
<path d="M1740 2580 c0 -5 5 -10 10 -10 6 0 10 5 10 10 0 6 -4 10 -10 10 -5 0
-10 -4 -10 -10z"/>
<path d="M1780 2580 c0 -5 5 -10 10 -10 6 0 10 5 10 10 0 6 -4 10 -10 10 -5 0
-10 -4 -10 -10z"/>
<path d="M1740 2551 c0 -6 5 -13 10 -16 6 -3 10 1 10 9 0 9 -4 16 -10 16 -5 0
-10 -4 -10 -9z"/>
<path d="M1780 2539 c0 -5 5 -7 10 -4 6 3 10 8 10 11 0 2 -4 4 -10 4 -5 0 -10
-5 -10 -11z"/>
<path d="M1810 2540 c0 -5 5 -10 10 -10 6 0 10 5 10 10 0 6 -4 10 -10 10 -5 0
-10 -4 -10 -10z"/>
<path d="M1700 2510 c0 -5 7 -10 15 -10 8 0 15 5 15 10 0 6 -7 10 -15 10 -8 0
-15 -4 -15 -10z"/>
<path d="M1740 2510 c0 -5 5 -10 10 -10 6 0 10 5 10 10 0 6 -4 10 -10 10 -5 0
-10 -4 -10 -10z"/>
<path d="M1780 2510 c0 -5 5 -10 10 -10 6 0 10 5 10 10 0 6 -4 10 -10 10 -5 0
-10 -4 -10 -10z"/>
<path d="M1810 2510 c0 -5 5 -10 10 -10 6 0 10 5 10 10 0 6 -4 10 -10 10 -5 0
-10 -4 -10 -10z"/>
<path d="M1706 2481 c-4 -5 -2 -12 3 -15 5 -4 12 -2 15 3 4 5 2 12 -3 15 -5 4
-12 2 -15 -3z"/>
<path d="M1740 2475 c0 -8 5 -15 10 -15 6 0 10 7 10 15 0 8 -4 15 -10 15 -5 0
-10 -7 -10 -15z"/>
<path d="M1780 2474 c0 -8 5 -12 10 -9 6 4 8 11 5 16 -9 14 -15 11 -15 -7z"/>
<path d="M1815 2481 c-3 -5 -1 -12 5 -16 5 -3 10 1 10 9 0 18 -6 21 -15 7z"/>
<path d="M3810 2585 c-18 -21 -5 -47 22 -43 26 3 37 36 16 49 -18 12 -24 11
-38 -6z"/>
<path d="M3980 2587 c-14 -7 -28 -26 -34 -47 -5 -19 -16 -39 -23 -43 -18 -11
-16 -37 2 -37 12 0 15 -17 15 -95 l0 -95 30 0 30 0 0 94 0 95 28 3 c19 2 28 9
30 26 3 19 -1 22 -28 22 -44 0 -38 34 7 38 20 2 33 10 36 22 8 31 -46 41 -93
17z"/>
<path d="M4145 2588 c-26 -15 -35 -28 -35 -55 0 -12 -9 -27 -21 -33 -22 -12
-21 -35 2 -35 11 0 15 -21 17 -97 l3 -98 29 0 30 0 0 95 c0 95 0 95 25 95 20
0 25 5 25 25 0 20 -5 25 -25 25 -18 0 -25 5 -25 20 0 16 7 20 30 20 34 0 52
26 29 41 -19 12 -60 11 -84 -3z"/>
<path d="M3343 2573 c-29 -6 -63 -49 -63 -80 0 -27 38 -69 88 -95 38 -20 49
-42 31 -64 -12 -15 -46 -14 -101 2 -14 4 -18 -1 -18 -24 0 -27 4 -30 41 -36
58 -9 106 2 129 31 40 51 19 104 -58 142 -49 25 -61 46 -40 67 11 12 24 13 56
6 45 -10 52 -8 52 19 0 12 -12 21 -37 28 -39 11 -42 11 -80 4z"/>
<path d="M2212 2495 c-63 -28 -56 -80 15 -117 27 -13 50 -32 51 -42 4 -17 -2
-18 -52 -14 -53 4 -56 3 -56 -18 0 -18 7 -24 35 -30 77 -14 135 16 135 70 0
33 -10 44 -69 74 -45 22 -41 37 10 37 27 0 43 5 50 17 11 20 4 26 -47 33 -24
3 -52 -1 -72 -10z"/>
<path d="M2443 2496 c-40 -18 -55 -47 -56 -108 -1 -83 59 -133 136 -112 25 8
33 16 35 38 3 25 2 26 -17 17 -52 -28 -94 -2 -94 57 0 57 17 75 65 69 31 -4
38 -2 44 15 8 25 6 26 -41 33 -25 3 -52 0 -72 -9z"/>
<path d="M2660 2501 c-16 -4 -25 -14 -25 -26 0 -17 7 -20 50 -20 39 0 50 -4
53 -17 3 -14 -3 -18 -26 -18 -69 0 -112 -32 -112 -82 1 -55 67 -85 117 -53 24
16 27 16 38 1 7 -9 20 -16 29 -16 14 0 16 14 16 100 0 94 -1 100 -24 115 -29
19 -82 27 -116 16z m80 -135 c0 -32 -13 -46 -41 -46 -33 0 -48 22 -29 45 16
19 70 20 70 1z"/>
<path d="M2870 2390 l0 -120 30 0 30 0 0 73 c0 78 16 117 49 117 33 0 41 -22
41 -107 l0 -83 30 0 29 0 3 86 c2 70 6 89 21 98 12 8 22 8 35 0 14 -9 18 -28
20 -98 l3 -86 29 0 30 0 0 94 c0 116 -14 141 -79 141 -25 0 -45 -6 -51 -14 -7
-12 -14 -11 -45 3 -36 17 -88 15 -100 -5 -9 -14 -25 -11 -25 6 0 9 -9 15 -25
15 l-25 0 0 -120z"/>
<path d="M3520 2390 l0 -120 30 0 30 0 0 68 c0 78 16 116 49 120 34 5 41 -12
41 -105 l0 -83 30 0 30 0 0 98 c0 82 -3 102 -17 115 -29 26 -69 31 -104 13
-39 -20 -39 -20 -39 -1 0 9 -9 15 -25 15 l-25 0 0 -120z"/>
<path d="M3800 2390 l0 -120 30 0 30 0 0 120 0 120 -30 0 -30 0 0 -120z"/>
</g>
</svg>
